<?xml version="1.0" encoding="utf-8"?>
<!-- Generator: Adobe Illustrator 18.1.1, SVG Export Plug-In . SVG Version: 6.00 Build 0)  -->
<svg version="1.1" id="Layer_1" xmlns="http://www.w3.org/2000/svg" xmlns:xlink="http://www.w3.org/1999/xlink" x="0px" y="0px"
	 viewBox="0 0 750 326.1" enable-background="new 0 0 750 326.1" xml:space="preserve">
<g>
	<path fill="#FFFFFF" d="M547.9,11H204c-15.5,0-28.1,12.6-28.1,28.1V204c0,15.5,12.6,28.1,28.1,28.1h344c15.5,0,28.1-12.6,28.1-28.1
		V39.1C576.1,23.6,563.5,11,547.9,11z"/>
	<g>
		<g>
			<defs>
				<rect id="SVGID_1_" x="12.7" y="242.9" width="723.6" height="72.3"/>
			</defs>
			<clipPath id="SVGID_2_">
				<use xlink:href="#SVGID_1_"  overflow="visible"/>
			</clipPath>
			<rect x="71.7" y="255.4" clip-path="url(#SVGID_2_)" fill="#08A84E" width="21.8" height="58.7"/>
		</g>
		<g>
			<defs>
				<rect id="SVGID_3_" x="12.7" y="242.9" width="723.6" height="72.3"/>
			</defs>
			<clipPath id="SVGID_4_">
				<use xlink:href="#SVGID_3_"  overflow="visible"/>
			</clipPath>
			<polygon clip-path="url(#SVGID_4_)" fill="#08A84E" points="46.7,255.4 46.7,275.1 33.2,275.1 33.2,255.4 12.7,255.4 12.7,314.1 
				33.2,314.1 33.2,293.6 46.7,293.6 46.7,314.1 67.2,314.1 67.2,255.4 			"/>
		</g>
		<g>
			<defs>
				<rect id="SVGID_5_" x="12.7" y="242.9" width="723.6" height="72.3"/>
			</defs>
			<clipPath id="SVGID_6_">
				<use xlink:href="#SVGID_5_"  overflow="visible"/>
			</clipPath>
			<polygon clip-path="url(#SVGID_6_)" fill="#08A84E" points="190.2,255.4 190.2,275.1 176.7,275.1 176.7,255.4 156.2,255.4 
				156.2,314.1 176.7,314.1 176.7,293.6 190.2,293.6 190.2,314.1 210.7,314.1 210.7,255.4 			"/>
		</g>
		<g>
			<defs>
				<rect id="SVGID_7_" x="12.7" y="242.9" width="723.6" height="72.3"/>
			</defs>
			<clipPath id="SVGID_8_">
				<use xlink:href="#SVGID_7_"  overflow="visible"/>
			</clipPath>
			<path clip-path="url(#SVGID_8_)" fill="#08A84E" d="M130,272.7c-5.2,0-11.5,4.1-11.5,12.1c0,16.1,13.5,13.5,13.5,13.5v-5
				l-7.5-0.1l3.7-13.5h21.5c0,0-0.1,28.9,0,28.9c-3.9,3.9-9.2,6.5-21.5,6.5c-14.5,0-31-9.4-31-30.3c0-20.9,17.5-30.6,31-30.6
				c13.5,0,21.5,5.9,21.5,5.9l-12.4,14.6C137.3,274.7,135.5,272.7,130,272.7"/>
		</g>
		<g>
			<defs>
				<rect id="SVGID_9_" x="12.7" y="242.9" width="723.6" height="72.3"/>
			</defs>
			<clipPath id="SVGID_10_">
				<use xlink:href="#SVGID_9_"  overflow="visible"/>
			</clipPath>
			<polygon clip-path="url(#SVGID_10_)" fill="#08A84E" points="217.4,255.4 217.4,314.2 251.6,314.1 258.6,294.7 239,294.7 
				239,255.4 			"/>
		</g>
		<g>
			<defs>
				<rect id="SVGID_11_" x="12.7" y="242.9" width="723.6" height="72.3"/>
			</defs>
			<clipPath id="SVGID_12_">
				<use xlink:href="#SVGID_11_"  overflow="visible"/>
			</clipPath>
			<polygon clip-path="url(#SVGID_12_)" fill="#08A84E" points="625.9,255.3 620,314.1 637.9,314.1 640.6,282.4 655.4,314.2 
				669.9,282.2 673.1,314.1 691.1,314.1 684.1,255.3 663.7,255.4 655.9,275.3 647.3,255.5 			"/>
		</g>
		<g>
			<defs>
				<rect id="SVGID_13_" x="12.7" y="242.9" width="723.6" height="72.3"/>
			</defs>
			<clipPath id="SVGID_14_">
				<use xlink:href="#SVGID_13_"  overflow="visible"/>
			</clipPath>
			<path clip-path="url(#SVGID_14_)" fill="#08A84E" d="M283.4,292.6l4.1-17.7l4.5,17.7H283.4z M358,255.3v29.9l-18.1-29.8l-20.9,0
				l-0.1,53l-19.5-53h-23.8l-20.8,58.7l23.6,0l1.7-7.4h15.5l1.9,7.5l42.3,0l0-30l18.2,30v0h20.4v-58.8L358,255.3L358,255.3z"/>
		</g>
		<g>
			<defs>
				<rect id="SVGID_15_" x="12.7" y="242.9" width="723.6" height="72.3"/>
			</defs>
			<clipPath id="SVGID_16_">
				<use xlink:href="#SVGID_15_"  overflow="visible"/>
			</clipPath>
			<path clip-path="url(#SVGID_16_)" fill="#08A84E" d="M731.7,274l-0.3-15.2c0,0-4.8-5.1-16.2-5.1c-9.8,0-25,7.5-25.2,20.4
				c0,12.2,10.8,14.7,11.4,14.7c2.8,1.1,12.9-0.2,12.9,6.4c0,0,0.5,3.6-6.4,3.6c-7,0-12.9-3.7-14.8-5.2c0.1-0.1,0,16,0,16
				s9.7,5,18.5,5c8.8,0,24.7-6.5,24.7-20.7c0-5.7-5.8-13.4-13.8-14.7c-5.7-0.8-11.5-3.4-11.5-6.5c0-1.6,1.9-3.3,6-3.3
				C724.7,269.4,731.1,273.3,731.7,274"/>
		</g>
		<g>
			<defs>
				<rect id="SVGID_17_" x="12.7" y="242.9" width="723.6" height="72.3"/>
			</defs>
			<clipPath id="SVGID_18_">
				<use xlink:href="#SVGID_17_"  overflow="visible"/>
			</clipPath>
			<path clip-path="url(#SVGID_18_)" fill="#08A84E" d="M585.1,281.6l0-10.4c0,0,9.9-0.9,9.9,5.1C595,282.7,585.1,281.6,585.1,281.6
				 M528.8,292.6l4.1-17.7l4.5,17.7H528.8z M607.4,293.7c-0.8-1-1.3-2.2-3.1-2.6c2.4-0.8,11.5-2.4,11.5-16
				c-0.1-12.5-8.9-19.7-29.6-19.7h-21.3V310l-20.1-54.6H521l-20.8,58.7l23.6,0l1.7-7.4H541l1.9,7.5l43.3,0l0-20l10,20l26.6-0.1
				C622.8,314.1,607.4,293.7,607.4,293.7"/>
		</g>
		<g>
			<defs>
				<rect id="SVGID_19_" x="12.7" y="242.9" width="723.6" height="72.3"/>
			</defs>
			<clipPath id="SVGID_20_">
				<use xlink:href="#SVGID_19_"  overflow="visible"/>
			</clipPath>
			<path clip-path="url(#SVGID_20_)" fill="#08A84E" d="M406.8,273.6c0,0,0,22.5,0,22.7c5.7,0.1,14.4-0.7,14.4-12.1
				C421.2,274.2,412.6,273.6,406.8,273.6 M442.5,284.1c0,24-16.9,30-35.6,30.1c-0.1,0.1-21.4,0-21.4,0l0-58.9h21.3
				C425.6,255.3,442.5,263.3,442.5,284.1"/>
		</g>
		<g>
			<defs>
				<rect id="SVGID_21_" x="12.7" y="242.9" width="723.6" height="72.3"/>
			</defs>
			<clipPath id="SVGID_22_">
				<use xlink:href="#SVGID_21_"  overflow="visible"/>
			</clipPath>
			<polygon clip-path="url(#SVGID_22_)" fill="#08A84E" points="492.2,272.2 509.9,272.2 505.8,255.4 470.2,255.4 470.2,314.1 
				492.2,314.1 492.2,293.7 501.9,293.7 501.9,277.9 492.2,277.9 			"/>
		</g>
	</g>
	<path fill="#08A84E" d="M547.9,11H204c-15.5,0-28.1,12.6-28.1,28.1V204c0,15.5,12.6,28.1,28.1,28.1h344c15.5,0,28.1-12.6,28.1-28.1
		V39.1C576.1,23.6,563.5,11,547.9,11z M543.5,206.8c0.2,1.2-2.6,1-2.6,1s-324,0.1-324.1,0.1c-1.3-0.3-1.5-0.9-1.6-1.6
		c-0.1-0.7,0.2-1.6,1.3-2.3c0.5-0.4,3.6-1.7,7.6-3.4c3.6-1.6,8.6-3.7,14.9-6.2c3.2-1.3,5.4-2.2,5.4-2.2s10.7-2.7,10.7-16.1
		l-0.1-36.8c0,0-13.9,0.9-14.8-8.9c0,0-18.4-3.6-18.4-21.5s12.1-20.9,12.1-20.9s-7.3-5.8-4.4-17.5c2.9-11.7,14.4-15,14.4-15
		s1.7-14,16.9-14c15.3,0,16.9,15,16.9,15s12.5,2.7,12.5,14.2s-6.1,14.6-6.1,14.6s5.4,3.3,5.4,16.9c0,13.6-9,15-9,15
		s4.6,7.5,0.6,14.4c-4,6.9-12.3,8.4-12.3,8.4v36c0,0-0.2,5.7,6.9,4.7c0,0,6.1-1.7,12.8-3.4c6.8-1.7,13.5-3.4,13.5-3.4l3.3-33.1
		h-11.4v-37.1l8.3-31.1c-3.9-3.9-4.5-7.4-4.5-7.4h7.6c0.7-3.1,2.1-9.2,2.4-9.6c0.3-0.4,2.2,6.7,3,9.6h124.5c0.8-3.2,2.6-10,2.9-9.6
		c0.3,0.4,1.7,6.3,2.6,9.6h7.5c0,0-0.5,3.2-5.7,7.5l7.3,31v37.1h-11.6l3,30.4l17,3.8L459.2,65c0,0-0.1-23.3,21.8-23.3
		c21.9,0,21.4,24.5,21.4,24.5l-1.1,120.6c0,0,26.2,10.5,39.9,17.6c0.4,0.2,0.8,0.4,1,0.6c0.2,0.1,0.3,0.2,0.3,0.2h-0.1
		C543.6,205.9,543.5,206.6,543.5,206.8z M373.4,164.3c6.7,0,13.3,0.2,19.7,0.7l-3.4-24.2h-36l-2.1,24.6
		C358.8,164.6,366.1,164.3,373.4,164.3z"/>
</g>
</svg>
